<svg xmlns="http://www.w3.org/2000/svg" width="66.95" height="33.47">
  <title>Logo</title>
  <path d="M4.34,9.62c0-4.48,2.85-7,8.1-7,3.79,0,4.46,2.47,4.47,3.36,0,1.73-2.44,3.56-2.44,3.56s.14,1.07,2.23,1.06,4.13-1.39,4.12-4.85c0-4-4.18-5.78-8.29-5.77C9.09,0,0,.5,0,9.56c0,8,15.2,8.75,15.22,13.91,0,5.59-6.26,7.1-8.37,7.11a2.72,2.72,0,0,1-3-2.35c0-4.53,4.49-5.79,4.49-5.79a1.89,1.89,0,0,0-2-1.84c-4.5,0-6.29,3.89-6.28,7.66,0,3.21,2.29,5.22,5.71,5.21,6.56,0,14-3.22,13.92-10.33C19.67,16.49,4.36,14.76,4.34,9.62Z" fill="#ffffff" />
  <path d="M66.83,27.42c-.06-.12-.2-.09-.4.07A8.8,8.8,0,0,1,60,29.86c-7.26,0-8.51-11.94-8.51-11.94s5.52-4.13,6.39-5.79-1.89-2-1.89-2-3.86,4.71-6.61,6.09c.3-2,2.32-6.71,2.45-9.39s-3.23-2-3.77-1.78c0,1.18-3,11.81-4,17.66-.63,1-1.54,2.18-2.35,2.18-.47,0-.64-.87-.65-2.12,0-1.73,1-4.51,1-6.19,0-1.17-.54-1.24-1-1.24l-.75,0c-1.19,0-.8-1-1.86-1-3.26,0-7.41,3.57-7.59,9a9.36,9.36,0,0,1-3.43,1.65c-.82,0-1-.77-1-1.43,0-1.15,1.88-8,1.88-8s2.38-.61,3.42-.81c.79-.15,1-.21,1.32-.59s.91-1.17,1.39-1.87,0-1.26-.89-1.25a31,31,0,0,0-4.31.74S30.65,5.16,30.65,5s-.18-.2-.43-.2A8.7,8.7,0,0,0,28,5.37a3.8,3.8,0,0,0-2,2.15c-.17.57-1.3,5-1.3,5s-6,2.09-6.87,2.4a.13.13,0,0,0-.09.12s.7,2.7,2.11,2.69a19,19,0,0,0,4-1.22s-1.53,6.1-1.53,8.12c0,1.3.62,2.83,3.16,2.82a10,10,0,0,0,5.6-2.07,3.28,3.28,0,0,0,3.15,2,6.46,6.46,0,0,0,4.28-2.08,2.89,2.89,0,0,0,2.61,2.05c.9,0,1.84-1,2.53-2a4.06,4.06,0,0,0,0,.62c.28,2.52,4,1,4.22.69.13-1.83,0-5.56.78-7.86C49.63,26.72,53.3,32,59.89,32c3.69,0,5.58-1.08,6.37-1.95A2.73,2.73,0,0,0,66.83,27.42ZM35.19,24.84c-3.16,0,1-8.2,3.67-8.21C38.86,17.68,38.8,24.82,35.19,24.84Z" fill="#ffffff" />
  <path d="M60.89,27.35a7.58,7.58,0,0,0,5.48-2.5c.52-.8-.61-2-1-2a5.12,5.12,0,0,1-4,1.91c-2.5,0-1.93-2.73-1.93-2.73s4.8.62,6.73-2.83a4.65,4.65,0,0,0,.39-3.29,3.85,3.85,0,0,0-3.87-1.69c-2.72.23-6.16,3.08-6.92,6.5C55.24,23.48,56.38,27.37,60.89,27.35Zm3-11.51c.45,0,.41.72.29,1.49-.17,1.05-1.61,3.72-4.36,3.62C60.05,19.4,62.1,15.9,63.94,15.84Z" fill="#ffffff" />
</svg>